<svg xmlns="http://www.w3.org/2000/svg" viewBox="0 0 39.386 39.386">
    <defs>
        <style>
            .prefix__cls-1{fill:#27b3ff}
        </style>
    </defs>
    <g id="prefix__iconfinder_Coronavirus_health_protection_19_5740524" transform="translate(-3 -3)">
        <path id="prefix__Caminho_44" d="M22.693 42.386a.659.659 0 0 1-.1-.007A22.935 22.935 0 0 1 3 19.785V10.47a.679.679 0 0 1 .679-.679 6.118 6.118 0 0 0 6.112-6.112A.679.679 0 0 1 10.47 3h24.446a.679.679 0 0 1 .679.679 6.118 6.118 0 0 0 6.112 6.112.679.679 0 0 1 .679.679v9.316a22.935 22.935 0 0 1-19.6 22.594.659.659 0 0 1-.1.007zM4.358 11.118v8.667a21.571 21.571 0 0 0 18.335 21.236 21.571 21.571 0 0 0 18.335-21.236v-8.667a7.481 7.481 0 0 1-6.76-6.76h-23.15a7.481 7.481 0 0 1-6.76 6.76z" class="prefix__cls-1" data-name="Caminho 44"/>
        <path id="prefix__Caminho_45" d="M24.619 40.237a.664.664 0 0 1-.122-.012A18.862 18.862 0 0 1 9 21.659v-6.547a.679.679 0 0 1 .679-.679 4.76 4.76 0 0 0 4.754-4.753.679.679 0 0 1 .679-.68h19.014a.679.679 0 0 1 .679.679 4.76 4.76 0 0 0 4.753 4.754.679.679 0 0 1 .679.679v6.548a18.862 18.862 0 0 1-15.5 18.566.664.664 0 0 1-.118.011zM10.358 15.753v5.908a17.505 17.505 0 0 0 14.261 17.207 17.505 17.505 0 0 0 14.26-17.208v-5.909a6.123 6.123 0 0 1-5.395-5.393H15.753a6.123 6.123 0 0 1-5.395 5.395z" class="prefix__cls-1" data-name="Caminho 45" transform="translate(-1.926 -1.926)"/>
        <path id="prefix__Caminho_46" d="M30.223 36.014h-5.432a.679.679 0 0 1-.679-.679V29.9h-5.433a.679.679 0 0 1-.679-.677v-5.432a.679.679 0 0 1 .679-.679h5.433v-5.433a.679.679 0 0 1 .679-.679h5.433a.679.679 0 0 1 .679.679v5.433h5.433a.679.679 0 0 1 .679.679v5.433a.679.679 0 0 1-.679.679H30.9v5.433a.679.679 0 0 1-.677.678zm-4.753-1.358h4.074v-5.433a.679.679 0 0 1 .679-.679h5.433V24.47h-5.433a.679.679 0 0 1-.679-.679v-5.433H25.47v5.433a.679.679 0 0 1-.679.679h-5.433v4.074h5.433a.679.679 0 0 1 .679.679z" class="prefix__cls-1" data-name="Caminho 46" transform="translate(-4.814 -4.493)"/>
    </g>
</svg>
