<svg xmlns="http://www.w3.org/2000/svg" viewBox="0 0 28.229 40.605">
    <path id="prefix__lightbulb-regular" d="M13.614 6.188a7.434 7.434 0 0 0-7.426 7.426 1.238 1.238 0 1 0 2.475 0 4.956 4.956 0 0 1 4.951-4.951 1.238 1.238 0 1 0 0-2.475zM7.431 35.519a1.23 1.23 0 0 0 .207.684l1.9 2.85a1.238 1.238 0 0 0 1.03.552h6.1a1.236 1.236 0 0 0 1.03-.552l1.9-2.85a1.244 1.244 0 0 0 .207-.684v-3.34H7.428zM13.614 0A13.607 13.607 0 0 0 3.37 22.571 22.137 22.137 0 0 1 7.425 29.7h3.713v-.009a3.66 3.66 0 0 0-.166-1.088 24.391 24.391 0 0 0-4.809-8.484 9.9 9.9 0 1 1 14.906 0 24.446 24.446 0 0 0-4.8 8.467 3.675 3.675 0 0 0-.172 1.106v.008h3.713a22.12 22.12 0 0 1 4.055-7.129A13.608 13.608 0 0 0 13.614 0z" transform="translate(.5 .5)" style="fill:none;stroke:#27b3ff"/>
</svg>
