<svg xmlns="http://www.w3.org/2000/svg" viewBox="0 0 1154.4 311.52"><defs><style>.cls-1{isolation:isolate;}.cls-2{fill:#27b3ff;}</style></defs><title>logo-horizontalbackcovid</title><g id="Camada_2" data-name="Camada 2"><g id="Camada_1-2" data-name="Camada 1"><g id="Covid-19"><g id="VID-19" class="cls-1"><g id="v"><path class="cls-2" d="M630.22,76.79,562.68,229.3h-15.9L479.24,76.79h17.43l58.39,132.46L613.88,76.79Z"/></g><g id="i"><path class="cls-2" d="M652.23,76.79h16.12V229.3H652.23Z"/></g><g id="d"><path class="cls-2" d="M718,76.79h62.09q24.2,0,42.71,9.69a70.81,70.81,0,0,1,28.75,27q10.24,17.32,10.24,39.54t-10.24,39.55a70.72,70.72,0,0,1-28.75,27q-18.52,9.71-42.71,9.7H718Zm61.22,138.56q20,0,35.08-7.95a57.77,57.77,0,0,0,23.31-22q8.28-14,8.28-32.35t-8.28-32.35a57.74,57.74,0,0,0-23.31-22q-15-8-35.08-8h-45.1V215.35Z"/></g><g id="_-" data-name="-"><path class="cls-2" d="M888,163.5H945V177H888Z"/></g><g id="_1" data-name="1"><path class="cls-2" d="M1008,76.79V229.3H992.31V90.73H956.36V76.79Z"/></g><g id="_9" data-name="9"><path class="cls-2" d="M1138.28,95.41q16.11,19.95,16.12,56.33,0,25.48-8.71,43.13t-24.41,26.69q-15.67,9-36.6,9-22.65,0-36.16-8.28l6.31-12.63q10.9,7.19,29.63,7.19,25.27,0,39.66-16t14.37-46.52q0-5.67-.65-12.42a41.1,41.1,0,0,1-18.08,19.28q-12.42,6.87-28.54,6.87-15,0-26.69-5.67a43.32,43.32,0,0,1-18.19-16q-6.54-10.35-6.54-24.07a44.06,44.06,0,0,1,25.38-41.07,60.24,60.24,0,0,1,26.69-5.78Q1122.16,75.48,1138.28,95.41Zm-24.3,55a34.35,34.35,0,0,0,13.84-12,30.28,30.28,0,0,0,5-17,29.63,29.63,0,0,0-4.68-16.12,33.69,33.69,0,0,0-13.84-12q-9.15-4.57-21.78-4.58-16.58,0-26.91,9t-10.35,24.07q0,15,10.35,24t28,8.94A45.49,45.49,0,0,0,1114,150.43Z"/></g></g><path id="Covid" class="cls-2" d="M448.54,135.07a18.27,18.27,0,0,0-15.71,9H394.67a85,85,0,0,0-19.14-41.9L402.3,75.12a17.86,17.86,0,0,0,4.47.62,18.35,18.35,0,1,0-18.35-18.35,18.12,18.12,0,0,0,.64,4.56L361.94,89.36a84.93,84.93,0,0,0-42.26-17V34.07a18.36,18.36,0,1,0-18.67,0V72.39a85,85,0,0,0-43.85,18.15l-25.91-25.9a18.65,18.65,0,1,0-13.2,13.2l25.85,25.85A85.1,85.1,0,0,0,226,144.08H191.77a18.35,18.35,0,1,0,0,18.67h33.38a84.92,84.92,0,0,0,17.57,46.64L219.22,232.9a18.64,18.64,0,1,0,13.21,13.2l23.2-23.21A85,85,0,0,0,301,242.24v35.22a18.35,18.35,0,1,0,18.67,0V242.24a85,85,0,0,0,44.76-18.83l26.15,25.87a18.32,18.32,0,1,0,17.74-13.88,18.13,18.13,0,0,0-4.57.64l-26.29-26a84.94,84.94,0,0,0,18.06-47.29h37.29a18.32,18.32,0,1,0,15.72-27.68Zm-138.2,89a66.79,66.79,0,1,1,66.79-66.78A66.86,66.86,0,0,1,310.34,224.1Z"/><g id="C" class="cls-1"><g class="cls-1"><path class="cls-2" d="M38.89,213.29a73.34,73.34,0,0,1-28.54-27.77Q0,167.76,0,145.75A77.52,77.52,0,0,1,10.35,106,73.22,73.22,0,0,1,39,78.22q18.3-10,41-10a84.74,84.74,0,0,1,31.37,5.67,64.83,64.83,0,0,1,24.4,16.56l-10.24,10.23q-17.86-18.08-45.1-18.08A66.34,66.34,0,0,0,47.5,90.85a60.6,60.6,0,0,0-23.21,22.66,62.84,62.84,0,0,0-8.38,32.24A62.85,62.85,0,0,0,24.29,178,60.53,60.53,0,0,0,47.5,200.66a66.24,66.24,0,0,0,32.89,8.28q27.45,0,45.1-18.31l10.24,10.25a66,66,0,0,1-24.51,16.66,84.25,84.25,0,0,1-31.48,5.77Q57.08,223.31,38.89,213.29Z"/></g></g></g></g></g></svg>