<svg xmlns="http://www.w3.org/2000/svg" width="31.335" height="42.537" viewBox="0 0 31.335 42.537">
    <defs>
        <style>
            .prefix__cls-1{fill:none}.prefix__cls-2,.prefix__cls-3{stroke:none}.prefix__cls-3{fill:#27b3ff}
        </style>
    </defs>
    <g id="prefix__Layer_2" transform="translate(-101.22 -42.5)">
        <g id="prefix__Grupo_35" data-name="Grupo 35" transform="translate(102.22 43.5)">
            <g id="prefix__Grupo_32" data-name="Grupo 32" transform="translate(4.125 6.689)">
                <g id="prefix__Caminho_11" class="prefix__cls-1" data-name="Caminho 11">
                    <path d="M166.554 123.541a10.558 10.558 0 0 0-6.937-9.911v.01h-7.211v-.01a10.55 10.55 0 0 0-6.937 9.911v9.782h21.084v-9.782z" class="prefix__cls-2" transform="translate(-145.47 -113.63)"/>
                    <path d="M166.554 133.323v-9.782c0-2.911-1.18-5.547-3.088-7.455-1.077-1.079-2.387-1.924-3.848-2.456v.01h-7.211v-.01c-4.046 1.474-6.937 5.355-6.937 9.91v9.783h21.084m1 1H144.47V123.54c0-2.416.739-4.73 2.137-6.692 1.367-1.918 3.254-3.356 5.458-4.159l1.342-.488v.438h5.21v-.439l1.343.49c1.572.572 3.03 1.502 4.214 2.689 2.18 2.178 3.38 5.077 3.38 8.16v10.783z" class="prefix__cls-3" transform="translate(-145.47 -113.63)"/>
                </g>
            </g>
            <g id="prefix__Grupo_33" data-name="Grupo 33" transform="translate(0 29.434)">
                <g id="prefix__Caminho_12" class="prefix__cls-1" data-name="Caminho 12">
                    <path d="M128.5 352.1h-23.225a3.055 3.055 0 0 0 0 6.111h7.162a4.992 4.992 0 1 0 9.983 0h6.08a3.055 3.055 0 0 0 0-6.111z" class="prefix__cls-2" transform="translate(-102.22 -352.1)"/>
                    <path d="M105.275 352.1c-.844 0-1.608.342-2.16.895-.553.553-.895 1.317-.895 2.16 0 1.688 1.368 3.056 3.055 3.056h7.162c0 2.756 2.234 4.992 4.992 4.992 2.757 0 4.991-2.235 4.991-4.992h6.08c.844 0 1.608-.343 2.16-.895s.895-1.316.895-2.16c0-1.69-1.368-3.056-3.055-3.056h-23.225m0-1H128.5c2.236 0 4.055 1.82 4.055 4.056 0 1.083-.422 2.102-1.188 2.867-.766.766-1.784 1.188-2.867 1.188h-5.163c-.477 2.83-2.945 4.992-5.908 4.992-2.963 0-5.431-2.162-5.909-4.992h-6.245c-2.236 0-4.055-1.82-4.055-4.055 0-1.083.422-2.101 1.187-2.868.766-.766 1.785-1.188 2.868-1.188z" class="prefix__cls-3" transform="translate(-102.22 -352.1)"/>
                </g>
            </g>
            <g id="prefix__Grupo_34" data-name="Grupo 34" transform="translate(11.062)">
                <g id="prefix__Caminho_13" class="prefix__cls-1" data-name="Caminho 13">
                    <path d="M225.411 47.105a3.605 3.605 0 0 0-7.211 0v.042h7.211z" class="prefix__cls-2" transform="translate(-218.2 -43.5)"/>
                    <path d="M225.41 47.147v-.042c0-.996-.403-1.897-1.055-2.55-.653-.653-1.554-1.055-2.55-1.055-1.99 0-3.605 1.614-3.605 3.605v.042h7.21m1 1h-9.21v-1.042c0-2.54 2.066-4.605 4.605-4.605 1.232 0 2.389.48 3.257 1.35.87.868 1.349 2.025 1.349 3.255v1.042z" class="prefix__cls-3" transform="translate(-218.2 -43.5)"/>
                </g>
            </g>
        </g>
    </g>
</svg>
