<svg xmlns="http://www.w3.org/2000/svg" id="prefix__People" width="37.209" height="37.209" viewBox="0 0 37.209 37.209">
    <g id="prefix__Icon-1">
        <path id="prefix__newspaper" d="M3.1 8.682a.62.62 0 0 0-.62.62v21.085a.62.62 0 1 0 1.24 0V9.3a.62.62 0 0 0-.62-.62zm10.542 4.961a1.24 1.24 0 1 0 1.24-1.24 1.242 1.242 0 0 0-1.24 1.24zm-2.481 5.581a.62.62 0 0 0 .62.62H15.5a.619.619 0 0 0 .438-.182l3.9-3.9 1.422 1.422a.619.619 0 0 0 .877 0l2.662-2.662 2.662 2.662a.62.62 0 0 0 .877-.877l-3.1-3.1a.619.619 0 0 0-.877 0l-2.662 2.662-1.422-1.422a.619.619 0 0 0-.877 0L15.247 18.6H12.4v-7.437h17.367V18.6H19.225a.62.62 0 0 0 0 1.24h11.162a.62.62 0 0 0 .62-.62v-8.678a.62.62 0 0 0-.62-.62h-18.6a.62.62 0 0 0-.62.62zm17.986 10.543h-6.2a.62.62 0 1 0 0 1.24h6.2a.62.62 0 0 0 0-1.24zm-17.364 1.24h6.2a.62.62 0 0 0 0-1.24h-6.2a.62.62 0 1 0 0 1.24zm17.364-4.961h-6.2a.62.62 0 1 0 0 1.24h6.2a.62.62 0 0 0 0-1.24zm-17.364 1.24h7.442a.62.62 0 1 0 0-1.24h-7.442a.62.62 0 1 0 0 1.24zm19.225-4.341a.62.62 0 0 0-.62-.62h-7.443a.62.62 0 1 0 0 1.24h7.442a.62.62 0 0 0 .62-.62zm-.62-15.5a.62.62 0 1 0 0-1.24h-2.481a.62.62 0 0 0 0 1.24zm-18.6 0h9.922a.62.62 0 0 0 0-1.24h-9.927a.62.62 0 1 0 0 1.24zm0 16.124h6.2a.62.62 0 0 0 0-1.24h-6.2a.62.62 0 1 0 0 1.24zM37.209 3.1v28.527a5.179 5.179 0 0 1-5.581 5.581H5.581A5.179 5.179 0 0 1 0 31.627V8.062a3.1 3.1 0 0 1 3.1-3.1.62.62 0 1 1 0 1.24 1.863 1.863 0 0 0-1.86 1.86v23.565a3.951 3.951 0 0 0 4.341 4.341h26.046a3.951 3.951 0 0 0 4.341-4.341V3.1a1.863 1.863 0 0 0-1.86-1.86H8.062A1.909 1.909 0 0 0 6.2 3.1v29.768a.62.62 0 1 1-1.24 0V3.1A3.142 3.142 0 0 1 8.062 0h26.046a3.1 3.1 0 0 1 3.1 3.1z" style="fill:#27b3ff;fill-rule:evenodd"/>
    </g>
</svg>
